<?xml version="1.0" encoding="utf-8"?>
<!-- Generator: Adobe Illustrator 21.1.0, SVG Export Plug-In . SVG Version: 6.00 Build 0)  -->
<svg version="1.1" id="Layer_1" xmlns="http://www.w3.org/2000/svg" xmlns:xlink="http://www.w3.org/1999/xlink" x="0px" y="0px"
	 viewBox="0 0 180 60" style="enable-background:new 0 0 180 60;" xml:space="preserve">
<style type="text/css">
	.st0{fill:#D71E48;}
</style>
<g>
	<path class="st0" d="M151.9,1.1c-1.1,0.2-2.3,0.4-3.4,0.7c-3.7-1.1-8.1-1.8-13.1-1.3C135.4,0.4,142.6-0.9,151.9,1.1 M180,19.1
		c-3.1-4.1-6.5-7.4-9.9-9.9c-1.9,0.4-4.7,1.1-7.1,1.8c1.5,1.6,2.2,2.7,2.2,2.7c-37.7-0.1-65.3,20.1-65.3,20.1c34.8-10,67-6.9,67-6.9
		l-3.4,3.3l7.8-3.8l-12-4.6C169.8,16.8,180,19.1,180,19.1 M156.8,2.4c-1.6,0.3-3.3,0.7-4.3,0.9c2.7,1.2,4.9,2.7,6.7,4.2
		c1.4-0.5,3.3-1.1,5.6-1.7C162.1,4.3,159.4,3.2,156.8,2.4"/>
	<path class="st0" d="M16.2,49.3c2.1-0.7,3.5-2.2,3.5-4.5v-0.1c0-1.4-0.5-2.4-1.2-3.1c-1.2-1.2-2.9-1.8-5.6-1.8h-11h0H0l1.1,5h0.7
		v14.7h10.9c5,0,7.6-2.3,7.6-5.5v-0.1C20.4,51.4,18.7,50,16.2,49.3 M8.3,44.9h2.8c1.4,0,2.1,0.5,2.1,1.4v0.1c0,0.9-0.7,1.4-2.1,1.4
		H8.3V44.9z M13.7,53.2c0,0.8-0.7,1.4-2.2,1.4H8.3v-2.9h3.3C13,51.7,13.7,52.3,13.7,53.2L13.7,53.2z"/>
	<polygon class="st0" points="27.8,39.9 21.2,39.9 21.2,59.6 35.4,59.6 35.4,53.9 27.8,53.9 	"/>
	<path class="st0" d="M44.1,39.7l-8.3,19.8h7l0.7-1.8h7.6l0.7,1.8H59l-8.3-19.8H44.1z M49.1,52.1h-3.5l1.8-4.7L49.1,52.1z"/>
	<path class="st0" d="M67.2,54.1c-2.2,0-3.7-1.8-3.7-4.4v-0.1c0-2.4,1.5-4.3,3.7-4.3c1.8,0,2.8,1,3.6,2.4l5.4-3.2
		c-1.7-3-4.6-5.1-8.9-5.1c-5.9,0-10.5,4.4-10.5,10.3v0.1C56.8,55.9,61.6,60,67,60c4.9,0,7.7-2.4,9.3-5.3l-5.4-3.1
		C70.1,53.1,69.1,54.1,67.2,54.1"/>
	<path class="st0" d="M113.5,49.3c2.1-0.7,3.5-2.2,3.5-4.5v-0.1c0-1.4-0.5-2.4-1.2-3.1c-1.2-1.2-2.9-1.8-5.6-1.8h-11v19.7h10.9
		c5,0,7.6-2.3,7.6-5.5v-0.1C117.6,51.4,116,50,113.5,49.3 M105.6,44.9h2.8c1.4,0,2.1,0.5,2.1,1.4v0.1c0,0.9-0.7,1.4-2.1,1.4h-2.9
		V44.9z M111,53.2c0,0.8-0.7,1.4-2.2,1.4h-3.3v-2.9h3.3C110.3,51.7,111,52.3,111,53.2L111,53.2z"/>
	<path class="st0" d="M130.9,50.8c0,2.4-1.3,3.4-3,3.4c-1.8,0-3-1-3-3.5V39.9h-6.7v10.9c0,6.5,3.8,9.2,9.7,9.2
		c5.9,0,9.8-2.6,9.8-9.4V39.9h-6.7V50.8z"/>
	<path class="st0" d="M148.9,54.1c-2.2,0-3.7-1.8-3.7-4.4v-0.1c0-2.4,1.5-4.3,3.7-4.3c1.8,0,2.8,1,3.6,2.4l5.4-3.2
		c-1.7-3-4.6-5.1-8.9-5.1c-5.9,0-10.5,4.4-10.5,10.3v0.1c0,6.1,4.8,10.2,10.2,10.2c4.9,0,7.7-2.4,9.3-5.3l-5.4-3.1
		C151.8,53.1,150.8,54.1,148.9,54.1"/>
	<polygon class="st0" points="180,39.9 172.2,39.9 165.3,48.9 165.3,39.9 158.8,39.9 158.8,59.6 165.3,59.6 165.3,55.4 165.3,50.6 
		172.2,59.6 180,59.6 172.5,49.7 	"/>
	<polygon class="st0" points="90.5,39.9 83.6,48.9 83.6,39.9 77,39.9 77,59.6 83.6,59.6 83.6,55.4 83.6,50.6 90.5,59.6 98.3,59.6 
		90.8,49.7 98.3,39.9 	"/>
</g>
</svg>
